<svg width="84" height="35" xmlns="http://www.w3.org/2000/svg"><path d="M23.073 27.139c-.546.858-1.599 1.56-2.652 1.56-1.56 0-2.301-1.482-2.301-3.744 0-2.535.819-4.212 4.602-4.212h.351v6.396zm3.003-.585v-9.243c0-4.758-1.911-6.24-5.382-6.24-1.989 0-3.783.819-4.68 1.56l.585 2.691c1.014-.897 2.34-1.716 3.9-1.716 1.716 0 2.574 1.092 2.574 3.666v1.17h-.429c-5.499 0-7.644 2.652-7.644 6.864 0 3.861 1.911 5.967 4.719 5.967 1.716 0 2.808-.741 3.666-1.833h.195a9.27 9.27 0 0 0 .273 1.56h2.574a28.28 28.28 0 0 1-.351-4.446zm6.825-10.803c.702-.975 1.794-1.95 3.081-1.95 1.17 0 1.833.507 1.833 1.989V31h3.081V15.517c0-3.003-1.365-4.446-3.939-4.446-1.833 0-3.315 1.209-3.861 1.95h-.195v-1.716h-3.042V31h3.042V15.751zm16.965 15.522c1.599 0 2.691-.741 3.549-1.833h.195l.234 1.56h2.262V3.115h-3.042v8.697c-.585-.429-1.56-.741-2.496-.741-3.939 0-6.669 3.549-6.669 10.842 0 6.084 2.106 9.36 5.967 9.36zm3.198-4.095c-.507.78-1.326 1.521-2.847 1.521-2.223 0-3.081-2.808-3.081-7.41 0-4.017 1.17-7.722 3.627-7.722 1.014 0 1.677.312 2.301.936v12.675zm17.355 2.496l-.702-2.34c-.78.546-2.028 1.326-3.744 1.326-2.418 0-3.666-2.34-3.666-6.786h8.19v-1.677c0-6.669-2.145-9.126-5.421-9.126-4.173 0-5.928 4.602-5.928 10.92 0 6.045 2.496 9.282 6.552 9.282 1.95 0 3.471-.624 4.719-1.599zm-5.343-16.107c1.755 0 2.301 2.457 2.301 5.811h-5.031c.195-3.51.858-5.811 2.73-5.811zm15.678-2.223l-2.691 7.137-2.535-7.137h-3.159l3.705 9.477L71.979 31h3.003l2.964-8.112L80.988 31h3.159l-4.095-10.452 3.666-9.204h-2.964zM9.984 31v-9.867L17.35.203h-3.081L8.502 16.922 3.588 3.115H.234l6.669 17.901V31z" fill="#FFF"/></svg>
