<svg width="87" height="35" xmlns="http://www.w3.org/2000/svg"><path d="M23.87 27.005c-.558.868-1.636 1.578-2.714 1.578-1.596 0-2.355-1.5-2.355-3.788 0-2.564.84-4.26 4.71-4.26h.36v6.47zm3.074-.592v-9.35c0-4.814-1.956-6.313-5.508-6.313-2.036 0-3.872.828-4.79 1.578l.598 2.722c1.038-.907 2.395-1.736 3.992-1.736 1.757 0 2.635 1.105 2.635 3.71v1.182h-.43c-5.63 0-7.82 2.683-7.82 6.944 0 3.906 1.96 6.037 4.83 6.037 1.76 0 2.88-.75 3.75-1.855h.2c.04.513.16 1.144.28 1.578h2.64c-.16-.946-.36-2.603-.36-4.497zm6.986-10.93c.72-.985 1.836-1.972 3.153-1.972 1.198 0 1.877.52 1.877 2.02v15.38h3.153V15.25c0-3.037-1.397-4.497-4.032-4.497-1.87 0-3.39 1.224-3.95 1.973h-.2V10.99h-3.11v19.92h3.12V15.484zm20.997 13.85h.2l.24 1.577h2.314V3.017h-3.11V11.5c-.59-.435-1.59-.75-2.55-.75-4.03 0-6.82 3.59-6.82 10.968 0 6.155 2.16 9.47 6.11 9.47 1.64 0 2.76-.75 3.64-1.856zm-.36-2.29c-.52.79-1.357 1.54-2.914 1.54-2.275 0-3.153-2.84-3.153-7.496 0-4.064 1.197-7.812 3.712-7.812 1.038 0 1.717.315 2.355.947v12.822zM72.33 29.57l-.718-2.368c-.798.552-2.075 1.34-3.832 1.34-2.475 0-3.752-2.366-3.752-6.864h8.383v-1.696c0-6.747-2.19-9.232-5.54-9.232-4.27 0-6.06 4.655-6.06 11.047 0 6.115 2.56 9.39 6.71 9.39 2 0 3.56-.632 4.83-1.618zm-5.468-16.295c1.796 0 2.355 2.485 2.355 5.878h-5.15c.2-3.55.88-5.878 2.795-5.878zm16.047-2.25l-2.76 7.22-2.6-7.22h-3.23l3.79 9.588-4.19 10.297H77l3.035-8.206 3.113 8.206h3.234L82.19 20.337l3.753-9.31H82.91zM10.22 30.91v-9.98L17.687-.01h-3.295l-5.69 16.678-4.89-13.662H.21L7.064 20.81v10.1z" fill="#FFF"/></svg>
