<svg width="102" height="42" xmlns="http://www.w3.org/2000/svg"><path d="M28.008 31.457c-.655 1-1.92 1.818-3.185 1.818-1.873 0-2.763-1.727-2.763-4.363 0-2.954.984-4.908 5.527-4.908h.42v7.453zm3.607-.68V20.004c0-5.544-2.295-7.27-6.464-7.27-2.38 0-4.54.953-5.62 1.817l.71 3.14c1.22-1.04 2.81-2 4.69-2 2.06 0 3.09 1.28 3.09 4.28v1.37h-.52c-6.6 0-9.18 3.09-9.18 8 0 4.5 2.3 6.96 5.67 6.96 2.06 0 3.38-.86 4.41-2.13h.24c.05.59.19 1.32.33 1.82h3.09a32 32 0 0 1-.42-5.18zm8.02-12.616c.844-1.13 2.156-2.27 3.702-2.27 1.405 0 2.2.59 2.2 2.32v17.72h3.7V17.89c0-3.5-1.638-5.18-4.73-5.18-2.2 0-3.98 1.408-4.636 2.272h-.23v-2h-3.65v22.95h3.66V18.16zm24.812 15.98h.235l.28 1.82h2.717V3.99h-3.66v9.61c-.71-.5-1.88-.864-3-.864-4.73 0-8.01 4.135-8.01 12.634 0 7.09 2.53 10.906 7.16 10.906 1.92 0 3.23-.864 4.26-2.136zm-.42-2.63c-.61.91-1.594 1.77-3.42 1.77-2.67 0-3.7-3.27-3.7-8.63 0-4.68 1.405-8.99 4.355-8.99 1.218 0 2.014.37 2.764 1.09v14.77zm20.84 2.91l-.842-2.72c-.937.64-2.435 1.55-4.496 1.55-2.91 0-4.41-2.72-4.41-7.91h9.83v-1.96c0-7.77-2.58-10.63-6.51-10.63-5.01 0-7.12 5.37-7.12 12.73 0 7.05 3 10.82 7.87 10.82 2.34 0 4.16-.73 5.66-1.86zm-6.415-18.77c2.107 0 2.763 2.87 2.763 6.77h-6.042c.234-4.09 1.03-6.77 3.28-6.77zm18.828-2.59l-3.232 8.32-3.044-8.31H87.21l4.45 11.04-4.918 11.86h3.606l3.56-9.45 3.653 9.45h3.8l-4.92-12.18 4.41-10.72h-3.56zm-85.29 22.9v-11.5L21.04.01h-4.136L10.21 19.55 4.537 4.033H.343l7.947 20.29v11.634z" fill="#FFF"/></svg>
