<svg width="84" height="36" xmlns="http://www.w3.org/2000/svg"><path d="M79.282 12.273c-.243 0-.366.12-.428.278l-1.425 3.6-1.03 2.63s-.57-1.42-.856-2.12c-.23-.57-1.43-3.6-1.59-3.97-.08-.2-.17-.4-.48-.4h-2.37c-.26 0-.4.27-.32.44.09.17 3.87 8.38 3.87 8.38s-4.04 9.2-4.16 9.4c-.114.21.03.51.32.51h2.08c.35 0 .49-.17.596-.454.298-.797.74-1.907 1.37-3.623.416-1.135 1.11-3.13 1.11-3.13s.76 2.033 1.03 2.697c.68 1.68 1.548 3.873 1.64 4.105.096.242.23.41.473.41.237-.01 2.117-.01 2.35-.01.233 0 .34-.254.23-.476-.26-.527-2.5-5.71-4.056-9.12 0 0 4.026-8.49 4.105-8.7.08-.21.055-.43-.276-.43h-2.17zM19.934 28.117c-.567-.745-1.113-1.877-1.114-3.147-.002-2.01 1.056-4.088 2.704-4.09.815 0 1.71.254 2.476.833l.005 6.367c-.695.642-1.527.977-2.277.98l-.282.013c-.75 0-1.047-.344-1.512-.956zm-2.37-15.18c-.24.103-.39.193-.39.372 0 .1.056.22.117.33l.82 1.67c.08.19.22.23.33.23.12 0 .22-.06.33-.12 1.19-.73 2.08-1.27 2.78-1.27.92 0 1.61.67 2 1.54.36.8.41 1.97.41 3.26v.38c-.76-.45-2.06-.7-2.72-.7-3.51.003-5.4 3.164-5.396 6.543 0 3.64 2.217 6.31 4.873 6.307 1.48 0 2.82-.823 3.715-1.86l.54 1.19c.063.13.13.17.31.17h1.69V20.26c-.007-2.57-.146-4.533-.863-5.87-.9-1.676-2.5-2.407-4.33-2.407-1.18 0-3.017.428-4.24.952zm43.51 6.024c.347-3.15 1.135-4.75 2.496-4.75 1.184 0 1.995 1.63 2.192 4.49.04.6.04 1.27.04 1.27h-2.305c-.895 0-2.522.22-2.522.22s.02-.62.1-1.21zm7.946 3.31v-1.55c-.005-5.75-2.118-8.83-5.23-8.83-4.043 0-6.035 5.06-6.032 10.55.004 5.76 2.854 8.98 6.514 8.97 1.61 0 3.21-.6 4.26-1.16.16-.08.188-.2.15-.35l-.308-1.21c-.04-.146-.116-.22-.312-.22-.085 0-1.41.37-2.702.37-2.996.004-4.37-2.54-4.372-5.912l-.002-.82s1.49.196 2.383.196l5.65-.006zm-19.04 6.79c-2.597 0-3.747-2.93-3.75-7.27-.003-3.81 1.164-7.59 3.55-7.59.81 0 1.588.26 2.353.84l.01 13.43c-.59.31-1.35.6-2.16.6zM52.122 3.18v9.312c-.932-.34-1.78-.52-2.467-.52-3.944.003-6.48 3.593-6.475 10.512.004 5.928 2.48 9.02 5.915 9.018 1.45 0 2.643-.795 3.52-1.54l.53.838c.09.15.162.2.343.2h1.67l-.02-27.82h-3.016zm-19.317 9.1h-2.807V31h2.82l-.012-15.843s.93-.697 2.32-.7c1.324 0 2.29.655 2.29 1.943l.006 14.6h2.79l.005-15.393c-.002-2.28-1.496-3.567-4.06-3.565-1.904 0-3.348 1.35-3.348 1.35V12.28z"/><path fill="#F00" d="M15.342.51c-.034.165-4.084 11.98-4.38 12.965-.208.698-.888 3.158-1.05 3.748l-1.416-3.678C8.153 12.535 4.86 3.767 4.762 3.42c-.054-.195-.146-.435-.5-.433H1.597c-.26 0-.407.275-.322.443.067.136 4.89 12.357 6.837 17.026L8.12 31h3.07l-.005-10.466C12.8 16.21 18.713.834 18.777.662c.077-.21.055-.432-.278-.432h-2.73c-.25 0-.4.115-.43.28z"/></svg>
