<svg width="86" height="35" xmlns="http://www.w3.org/2000/svg"><path d="M45.983 28.388h-1.598l-.008-17.31h-9.35v1.696c0 5.282-.192 11.396-2.03 15.614h-1.239v6.425h2.797V30.91h8.631v3.903h2.797v-6.425zm12.815-1.13c-.799.551-2.197 1.34-3.956 1.34-2.477 0-3.756-2.366-3.756-6.86h8.391v-1.694c0-6.74-2.197-9.224-5.554-9.224-4.275 0-6.073 4.651-6.073 11.037 0 6.11 2.557 9.382 6.713 9.382 1.998 0 3.676-.631 4.954-1.617l-.719-2.365zM26.765 11.072v8.48H22.13v-8.48h-3.117V30.94h3.117v-8.962h4.635v8.962h3.076V11.073h-3.076zm44.358 19.863h3.396L68.805 20.41l4.995-9.342h-3.157l-4.835 9.184V11.07h-3.116v19.867h3.116v-9.894l5.315 9.894zM86.02 29.69l-.72-2.286c-.719.63-1.877 1.222-3.396 1.222-2.517 0-3.716-2.838-3.716-7.805 0-5.006 1.598-7.49 3.836-7.49 1.279 0 2.477.67 3.317 1.38l.44-2.917c-.88-.552-1.919-1.025-3.717-1.025-4.715 0-7.152 3.982-7.152 10.21 0 6.78 2.597 10.21 6.912 10.21 1.838 0 3.117-.592 4.196-1.499zm-44.716-1.199H35.95c1.678-4.218 1.878-10.327 1.878-14.506v-.355h3.476v14.861zm12.627-15.097c1.798 0 2.358 2.483 2.358 5.873h-5.155c.2-3.547.88-5.873 2.797-5.873zM11.892 20.35v10.525h3.077V3.027h-4.595c-4.516 0-8.312 2.895-8.312 8.808 0 4.218 1.678 6.504 4.196 7.765L.903 30.875H4.46l4.875-10.526h2.557zm.006-2.457H10.26c-2.677 0-4.875-1.458-4.875-5.991 0-4.691 2.398-6.307 4.875-6.307h1.638v12.298z" fill="#FFF"/></svg>
