<svg width="16" height="17" viewBox="0 0 16 17" xmlns="http://www.w3.org/2000/svg"><title>pogoda</title><defs><linearGradient x1="41.819%" y1="52.863%" x2="50.593%" y2="15.658%" id="a"><stop stop-color="#F33" stop-opacity=".75" offset="0%"/><stop stop-color="#F33" offset="100%"/></linearGradient></defs><g fill-rule="nonzero" fill="none"><path d="M7.996.038c.208 0 .377.168.377.376V1.81H7.62V.414c0-.208.168-.376.376-.376z" fill="#000"/><path fill="#000" d="M7.664.936v6.965h.665V.937z"/><path d="M.022 8.898c0-4.394 3.58-7.974 7.974-7.974 4.395 0 7.975 3.58 7.975 7.974H.022z" fill="url(#a)"/><path d="M7.996 9.895c4.405 0 7.975-.446 7.975-.997 0-.55-3.57-.997-7.975-.997-1.614 0-3.116.06-4.37.163-2.171.179-3.604.485-3.604.834 0 .55 3.57.997 7.974.997z" fill="#E00000"/><path d="M8.347 7.902l-.002 1.992H8.33v4.245a8.588 8.588 0 0 0 .038.787c.058.591.447 1.049 1.136 1.071.576.02 1.004-.29 1.11-.769l.006-.032a2.049 2.049 0 0 0 .036-.366v-.181a.332.332 0 0 1 .665 0h-.001v.181a2.694 2.694 0 0 1-.048.492l-.01.049c-.176.801-.892 1.32-1.78 1.29-1.058-.034-1.687-.774-1.776-1.67l-.004-.042a9.231 9.231 0 0 1-.037-.81V9.894h.019V7.902a64.876 64.876 0 0 1 .664 0z" fill="#000"/></g></svg>