<svg width="16" height="16" viewBox="0 0 16 16" xmlns="http://www.w3.org/2000/svg"><title>translate</title><defs><radialGradient cy="15.282%" fx="50%" fy="15.282%" r="51.968%" id="a"><stop stop-color="#FFF" offset="0%"/><stop stop-color="#FFF" stop-opacity="0" offset="100%"/></radialGradient></defs><g fill-rule="nonzero" fill="none"><circle fill="#000" cx="10.672" cy="5.328" r="5.319"/><path d="M13.508 5.616c-.16-.399-.468-.71-.896-.91.07-.341.094-.617.101-.798h-.737c-.007.137-.026.34-.075.591-.575-.083-1.223-.002-1.844.227-.07-.414-.112-.797-.136-1.138 2.21-.128 3.515-.665 3.575-.69l-.283-.685c-.014.005-1.248.51-3.32.633a7.764 7.764 0 0 1 .033-.84h-.74a9.11 9.11 0 0 0-.031.866l-.069.002c-.66.002-1.274-.05-1.419-.063v.746c.217.02.74.06 1.337.06h.088l.092-.002c.029.423.085.909.182 1.438-.978.586-1.755 1.724-1.359 2.65.166.387.487.637.903.7.07.011.142.016.216.016.422 0 .905-.172 1.366-.464.302.452.545.69.567.711l.506-.54a3.99 3.99 0 0 1-.488-.625 4.16 4.16 0 0 0 .346-.357c.49-.576.795-1.175.985-1.71a.94.94 0 0 1 .417.46c.294.737-.132 1.59-.528 1.959l.5.545c.66-.616 1.116-1.769.71-2.782M9.022 7.669a.401.401 0 0 1-.338-.261c-.182-.426.213-1.121.857-1.585.161.59.368 1.09.577 1.495-.393.257-.796.396-1.096.351m1.843-1.008c-.052.061-.107.118-.162.174a6.976 6.976 0 0 1-.495-1.372 3.311 3.311 0 0 1 1.23-.256c.09 0 .178.004.264.014a4.707 4.707 0 0 1-.837 1.44" fill="#FFF"/><circle fill="#F33" cx="5.328" cy="10.672" r="5.319"/><path d="M4.939 7.334l-2.466 5.994h1.009l.606-1.595h2.495l.606 1.595H8.2L5.731 7.334H4.94zm.397 1.237l.918 2.347H4.417l.919-2.347z" fill="#FFF"/><circle fill="url(#a)" opacity=".526" cx="5.328" cy="10.672" r="5.319"/></g></svg>