<svg width="94" height="42" xmlns="http://www.w3.org/2000/svg"><path d="M90.75 15.342c-.28 0-.423.14-.495.322a1021.712 1021.712 0 0 0-2.838 7.2l-.99-2.456c-.27-.66-1.666-4.16-1.843-4.59-.094-.232-.2-.462-.56-.462l-2.74.003c-.3 0-.47.315-.374.51.098.198 4.472 9.687 4.472 9.687s-4.68 10.634-4.82 10.872c-.135.24.037.582.37.582h2.403c.41 0 .57-.196.692-.526.344-.922.858-2.206 1.585-4.19a322.38 322.38 0 0 0 1.284-3.624s.878 2.352 1.19 3.12c.785 1.943 1.79 4.482 1.898 4.75.11.28.266.474.547.474h2.73c.27-.002.397-.294.27-.55-.304-.61-2.895-6.61-4.694-10.55 0 0 4.654-9.82 4.745-10.064.09-.245.06-.5-.32-.5h-2.503zM22.107 33.667c-.656-.86-1.287-2.17-1.29-3.64 0-2.325 1.222-4.727 3.128-4.73.944 0 1.98.294 2.855.964v7.364c-.788.742-1.75 1.13-2.618 1.132l-.326.017c-.868 0-1.21-.398-1.75-1.106zm-2.74-17.556c-.277.12-.453.222-.453.43 0 .123.065.264.136.386l.957 1.94c.098.218.257.268.386.268.142 0 .257-.063.385-.14 1.383-.84 2.414-1.467 3.216-1.467 1.062 0 1.867.78 2.314 1.79.414.936.472 2.28.492 4.215-.9-.524-2.4-.802-3.154-.802-4.058.005-6.243 3.66-6.24 7.568.002 4.21 2.563 7.297 5.635 7.295 1.72 0 3.27-.954 4.3-2.154l.63 1.378c.076.15.15.197.36.197h1.957V24.587c-.01-2.975-.17-5.243-1-6.79-1.04-1.94-2.89-2.784-5.01-2.784-1.36.002-3.484.496-4.902 1.102zm50.323 6.966c.402-3.65 1.313-5.497 2.887-5.498 1.37-.002 2.308 1.887 2.536 5.194.045.687.046 1.46.046 1.46l-2.67.002c-1.04 0-2.92.246-2.92.246s.022-.716.112-1.404zm9.19 3.83v-1.803c-.005-6.656-2.45-10.22-6.048-10.216-4.676.01-6.98 5.85-6.977 12.2.005 6.66 3.3 10.38 7.534 10.38 1.86 0 3.71-.7 4.92-1.342.183-.1.22-.24.173-.41l-.352-1.409c-.044-.17-.134-.257-.36-.257-.1 0-1.63.43-3.125.43-3.465 0-5.055-2.937-5.057-6.84v-.95s1.723.227 2.756.227l6.536-.007zm-22.022 7.848c-3.003.002-4.333-3.397-4.336-8.412-.004-4.41 1.345-8.776 4.107-8.78.93 0 1.83.294 2.72.965l.01 15.54c-.7.36-1.57.69-2.51.69zM59.338 5v10.597c-1.078-.395-2.06-.602-2.853-.602-4.562.003-7.494 4.155-7.49 12.16.006 6.855 2.868 10.43 6.84 10.43 1.678-.002 3.06-.92 4.072-1.78l.614.967c.11.174.19.23.4.23h1.58v-32h-3.16zM37.4 15.35H34v21.652h3.4V18.677s.923-.805 2.53-.807c1.532 0 2.65.756 2.65 2.246l.002 16.88h3.227v-17.8c0-2.64-1.73-4.13-4.7-4.128-2.2.002-3.718 1.562-3.718 1.562v-1.283z"/><path d="M16.796 1.736c-.04.19-6.282 19.33-6.282 19.33S4.67 5.506 4.56 5.102c-.062-.224-.17-.5-.578-.5l-3.084.002c-.3 0-.47.316-.373.51.077.16 7.975 19.693 7.975 19.693v12.196H12V24.897s8.694-22.785 8.768-22.985c.09-.243.064-.5-.32-.5l-3.16.002c-.278 0-.452.132-.492.322z" fill="#F00"/></svg>