<svg width="66" height="27" xmlns="http://www.w3.org/2000/svg"><path d="M18.168 20.94c-.426.646-1.246 1.177-2.066 1.177-1.215 0-1.793-1.12-1.793-2.827 0-1.914.63-3.18 3.58-3.18h.27v4.83zm2.34-7.422c0-3.592-1.49-4.71-4.193-4.71-1.55 0-2.945.742-3.643 1.3l.455 2.033c.79-.67 1.82-1.42 3.036-1.42 1.336 0 2.005.83 2.005 2.77v.89h-.334c-4.284 0-5.955 2.01-5.955 5.19 0 2.92 1.48 4.51 3.67 4.51 1.33 0 2.18-.56 2.85-1.38h.15c.03.39.12.86.21 1.18h2a20.71 20.71 0 0 1-.27-3.36v-6.98zm5.243-1.172c.55-.736 1.4-1.473 2.4-1.473.92 0 1.43.383 1.43 1.502V23.86h2.4V12.17c0-2.268-1.06-3.358-3.07-3.358-1.42 0-2.58.913-3 1.473h-.15V8.99h-2.37v14.87h2.37V12.345zm16.06 10.33h.15l.18 1.178h1.76V3.02h-2.37v6.346c-.45-.324-1.21-.56-1.94-.56-3.07 0-5.19 2.68-5.19 8.187 0 4.593 1.65 7.067 4.65 7.067 1.25 0 2.1-.56 2.77-1.384zm-.27-1.708c-.39.59-1.03 1.15-2.21 1.15-1.73 0-2.4-2.122-2.4-5.596 0-3.033.91-5.83 2.83-5.83.79 0 1.31.235 1.8.706v9.57zm13.52 1.885l-.54-1.767c-.6.412-1.58 1-2.91 1-1.88 0-2.85-1.766-2.85-5.123h6.38v-1.266c0-5.035-1.67-6.89-4.22-6.89-3.25 0-4.612 3.475-4.612 8.245 0 4.564 1.943 7.008 5.1 7.008 1.52 0 2.705-.47 3.677-1.207zM50.89 10.69c1.367 0 1.793 1.857 1.793 4.39h-3.92c.16-2.65.67-4.39 2.13-4.39zM63.1 9.014l-2.095 5.39-1.975-5.39h-2.46l2.886 7.155-3.19 7.68h2.34l2.308-6.13 2.37 6.12h2.46l-3.19-7.89L65.41 9H63.1z" fill="#000"/><path fill="#F00" d="M7.778 23.854v-7.45l6.134-16.43-2.528.066-4.76 13.184L2.76 3.014H0l5.377 13.302v7.538z"/></svg>
