<svg width="87" height="35" xmlns="http://www.w3.org/2000/svg"><path d="M23.87 27.005c-.558.868-1.636 1.578-2.714 1.578-1.596 0-2.355-1.5-2.355-3.788 0-2.564.838-4.26 4.71-4.26h.36v6.47zm3.074-.592v-9.35c0-4.814-1.956-6.313-5.508-6.313-2.036 0-3.872.828-4.79 1.578l.598 2.722c1.038-.907 2.395-1.736 3.992-1.736 1.757 0 2.635 1.105 2.635 3.709v1.183h-.44c-5.628 0-7.823 2.683-7.823 6.944 0 3.906 1.956 6.037 4.83 6.037 1.756 0 2.874-.75 3.752-1.855h.2c.04.513.16 1.144.28 1.578h2.634c-.16-.946-.36-2.603-.36-4.497zm6.986-10.929c.719-.986 1.836-1.973 3.153-1.973 1.198 0 1.877.513 1.877 2.013V30.91h3.153V15.247c0-3.037-1.397-4.497-4.032-4.497-1.876 0-3.393 1.223-3.951 1.972h-.2v-1.736h-3.114V30.91h3.114V15.484zm20.997 13.848h.2l.239 1.578h2.315V3.017h-3.114V11.5c-.598-.434-1.596-.75-2.554-.75-4.032 0-6.826 3.591-6.826 10.969 0 6.155 2.155 9.469 6.107 9.469 1.637 0 2.754-.75 3.633-1.855zm-.36-2.288c-.519.79-1.357 1.539-2.914 1.539-2.275 0-3.153-2.84-3.153-7.496 0-4.064 1.197-7.812 3.712-7.812 1.038 0 1.717.315 2.355.947v12.822zm17.764 2.525l-.719-2.367c-.798.552-2.075 1.341-3.832 1.341-2.475 0-3.752-2.367-3.752-6.865h8.383v-1.696c0-6.747-2.196-9.232-5.549-9.232-4.271 0-6.067 4.655-6.067 11.047 0 6.115 2.554 9.39 6.706 9.39 1.996 0 3.552-.632 4.83-1.618zm-5.469-16.294c1.796 0 2.355 2.485 2.355 5.878h-5.15c.2-3.55.879-5.878 2.795-5.878zm16.047-2.25l-2.754 7.22-2.595-7.22h-3.233l3.792 9.588-4.192 10.297h3.074l3.034-8.206 3.113 8.206h3.234L82.19 20.337l3.753-9.311h-3.034z" fill="#000"/><path fill="#F00" d="M10.219 30.91v-9.98l7.47-20.94h-3.296L8.702 16.669 3.812 3.006H.21L7.065 20.81v10.1z"/></svg>
