<svg width="69" height="28" xmlns="http://www.w3.org/2000/svg"><path d="M36.102 22.971h-1.268V9.023h-7.417v1.363c0 4.248-.159 9.193-1.617 12.585h-.983v5.06h2.22V25h6.846v3.031h2.22v-5.06zm10.747.951l-.57-1.902c-.635.444-1.744 1.078-3.14 1.078-1.965 0-2.979-1.902-2.979-5.516h6.657V16.22c0-5.42-1.743-7.418-4.406-7.418-3.392 0-4.819 3.74-4.819 8.876 0 4.914 2.03 7.545 5.326 7.545 1.585 0 2.916-.507 3.93-1.3zm-25.9-14.899v6.784h-3.676V9.023H14.8V25h2.473v-7.164h3.677V25h2.44V9.023h-2.44zM56.043 25h2.694l-4.533-8.464 3.963-7.513H55.66l-3.835 7.386V9.023h-2.473V25h2.473v-7.957L56.042 25zm8.495.222c1.459 0 2.473-.476 3.329-1.205l-.57-1.838c-.571.507-1.49.982-2.695.982-1.997 0-2.948-2.282-2.948-6.276 0-4.026 1.268-6.023 3.043-6.023 1.014 0 1.965.539 2.63 1.11l.35-2.347c-.698-.443-1.522-.824-2.948-.824-3.741 0-5.675 3.202-5.675 8.21 0 5.453 2.06 8.21 5.484 8.21zm-32.143-2.25h-4.248c1.331-3.393 1.49-8.306 1.49-11.666v-.286h2.758v11.951zM42.41 10.83c1.426 0 1.87 1.997 1.87 4.723h-4.09c.16-2.853.698-4.723 2.22-4.723zM9.418 16.314V25h2.44V2.334H8.213c-3.582 0-6.594 2.378-6.594 7.133 0 3.392 1.332 5.23 3.329 6.245L.7 25h2.821l3.868-8.686h2.029zm0-2.029h-1.3c-2.124 0-3.868-1.173-3.868-4.818 0-3.772 1.902-5.072 3.868-5.072h1.3v9.89z" fill="#FFF"/></svg>
