<svg xmlns="http://www.w3.org/2000/svg" viewBox="0 0 16 12" enable-background="new 0 0 16 12"><switch><g><path fill="#fff" d="m0 0h16v12h-16z"/><g><path fill="#ee3524" d="m4.438 0h11.563v7.959h-11.563z"/><path fill="#00b185" d="m4.438 7.959h11.563v4.04h-11.563z"/></g><g><g><path fill="#ee3524" d="m2.552 1.541c.138.355.228.537.42.849h.116c.528-.546.635-1.259.157-1.89h-.431c-.125.257-.191.444-.263.742h-.145c-.072-.298-.138-.485-.263-.742h-.431c-.478.63-.371 1.343.158 1.89h.115c.193-.312.283-.494.421-.849h.145"/><path fill="#ee3524" d="m2.552 10.434c.138-.355.228-.537.42-.85h.116c.528.547.635 1.262.157 1.893h-.431c-.124-.258-.191-.445-.263-.742h-.145c-.072.297-.138.484-.263.742h-.431c-.478-.631-.371-1.346.158-1.893h.115c.193.313.283.494.421.85h.145"/><path fill="#ee3524" d="m2.574 8.291c.094.375.213.586.382.914.695-.475.773-1.264.327-1.982-.129.432-.29.541-.24 1.117-.62-.59-.292-1.406.244-1.975.082.352.279.649.346.96.092-.64-.192-.904-.333-1.246v-.181c.141-.343.425-.606.333-1.247-.067.311-.264.607-.346.959-.536-.568-.863-1.384-.244-1.976-.051.578.11.687.24 1.118.447-.719.368-1.508-.327-1.981-.169.328-.288.538-.382.912h-.189c-.094-.373-.212-.585-.381-.912-.695.473-.774 1.261-.327 1.981.129-.431.291-.54.24-1.118.62.591.293 1.407-.244 1.976-.081-.351-.28-.648-.346-.959-.092.641.192.903.334 1.247v.181c-.141.343-.426.606-.333 1.246.066-.311.265-.608.346-.96.536.569.864 1.385.244 1.975.051-.576-.111-.688-.24-1.117-.447.721-.368 1.508.327 1.982.17-.328.288-.539.381-.914h.19"/><path fill="#fff" d="m2.574 7.277c.104-.464.313-.881.601-1.199v-.181c-.288-.319-.497-.735-.601-1.2h-.189c-.104.464-.312.881-.601 1.2v.181c.289.318.498.734.601 1.199h.189"/><g><path fill="#fff" d="m1.991 1.958c.007-.188.093-.351.24-.437v-.26c-.147-.086-.233-.249-.24-.437h-.125c-.007.188-.093.351-.24.437v.26c.147.086.233.249.24.437h.125"/><path fill="#fff" d="m1.991 10.02c.008.188.093.352.24.438v.26c-.147.086-.233.248-.24.435h-.125c-.007-.188-.093-.35-.24-.435v-.26c.147-.086.232-.25.24-.438h.125"/><path fill="#fff" d="m2.968 1.958c-.007-.188-.093-.35-.24-.437v-.26c.147-.086.232-.249.24-.437h.124c.008.188.094.35.24.437v.26c-.146.086-.232.249-.24.437h-.124"/><path fill="#fff" d="m2.968 10.02c-.007.188-.093.35-.24.438v.26c.147.086.232.248.24.435h.124c.008-.188.094-.35.24-.435v-.26c-.146-.088-.232-.25-.24-.438h-.124"/></g><path fill="#fff" d="m1.884 1.258h.091v.265h-.091z"/></g><path fill="#ee3524" d="m2.533.928c-.02-.002-.035-.012-.057-.012-.067 0-.123.016-.176.036-.081-.096-.202-.161-.365-.161-.41 0-.557.403-.446.698-.011.123.027.244.123.344.17.252.524.24.736.056.042.011.08.027.128.027.013 0 .022-.006.034-.007.258.281.865.175.882-.326.008-.067.016-.134.024-.201.112-.553-.619-.826-.884-.455"/><path fill="#ee3524" d="m2.666 10.08c-.056-.021-.117-.039-.189-.039-.073 0-.135.018-.191.039-.341-.291-.975.162-.741.672.011.043.022.088.033.131.096.459.63.438.864.152.013 0 .021.006.034.006.029 0 .049-.012.075-.016.071.15.208.266.425.266.231 0 .374-.129.44-.293.082-.08.143-.182.143-.332v-.291c0-.52-.643-.613-.894-.295"/><path fill="#ee3524" d="m2.917 6.909c-.148-.627-1.113-.361-.964.265.056.236.064.461.065.701.002.645 1 .645 1 0-.002-.33-.025-.644-.101-.966"/><path fill="#ee3524" d="m2.02 4.375c-.001.252-.009.499-.042.75-.081.638.919.63 1 0 .032-.251.041-.498.042-.75.002-.645-.998-.644-1 0"/></g></g></switch></svg>