<svg width="84" height="36" xmlns="http://www.w3.org/2000/svg"><path d="M26.17 12v7.53H21.8V12h-2.9v19h2.9v-9.1h4.36V31h2.92V12h-2.9zm55.75 16.3c-.18 0-1.2.42-2.68.42-2.88 0-4.28-2.77-4.28-7.16 0-3.86 1.17-7.7 3.14-7.7.53 0 1.18.16 2.2 1.1.1.12.2.16.3.16.12 0 .23-.07.34-.26l1.02-1.67c.08-.2.12-.3.12-.4 0-.2-.15-.3-.38-.4-1.55-.8-2.6-.98-3.52-.98-3.56 0-6.33 4.25-6.33 10.87 0 5.7 2.66 9 6.44 9 1.5 0 3.3-.75 3.9-1.25.12-.1.2-.27.12-.4l-.3-1.3c-.04-.1-.08-.16-.2-.16zm-11.42-16c.08-.12.04-.27-.1-.3h-2.24c-.65.03-.87.26-1.1.75l-3.4 7.08c-.2.42-.4.68-.58.8V12h-2.9v19h2.9v-9.77c.12.08.2.2.27.34l4.3 8.86c.24.46.58.57 1.08.57h2.42c.15 0 .2-.15.1-.27l-5.3-10.14 4.55-8.3zM43.8 28.6c-.56 0-.7-.2-.7-.67V12H35v1.66c0 4.58-.28 10.5-2.7 14.95h-1.14v6.1h2.1c.4 0 .55-.3.55-.5V31H42v3.7h2.2c.22 0 .45-.18.45-.56V28.6h-.76zm-9.1 0c1.92-3.3 2.67-7 2.94-11.54.07-.98.1-2 .1-2.76h2.44v14.3h-5.5zM52 11.58c-4.1 0-5.92 5.15-5.92 10.75 0 5.72 2.58 9.13 6.36 9.13 1.86 0 3.5-.72 4.32-1.25.15 0 .2-.2.15-.3l-.3-1.3c0-.1-.1-.2-.3-.2-.1 0-1.2.4-2.8.4-2.9 0-4.2-2.5-4.2-5.82V22s1.5.17 2.37.17h5.53v-1.6c0-5.86-2.08-9-5.1-9zm-.43 8.22c-.87 0-2.23.14-2.23.14s0-.57.07-1.17c.4-3.22 1.2-4.85 2.5-4.85 1.2 0 2 1.67 2.2 4.58.07.6.07 1.3.07 1.3h-2.5z"/><path fill="#F00" d="M10.27 2.57c-4.24 0-7.84 3.22-7.84 9.46 0 3.75 1.74 6.52 4.85 7.88l-5.8 10.5c-.2.4 0 .6.3.6h2.7c.22 0 .37 0 .45-.2l5.27-10.3H12V31h3V2.56h-4.73zm.14 15.45c-2.5 0-4.9-1.82-4.9-6.37C5.5 6.92 7.8 5 10.1 5H12v13h-1.6z"/></svg>
