<svg xmlns="http://www.w3.org/2000/svg" viewBox="0 0 16 12" enable-background="new 0 0 16 12"><path fill="#0093c1" d="m0 0h16v12h-16z"/><g fill="#fff200"><path d="m9.34 7.68c-1.714 0-3.129-1.25-3.406-2.886-.032.189-.058.38-.058.579 0 1.914 1.551 3.465 3.464 3.465 1.914 0 3.465-1.552 3.465-3.465 0-.198-.026-.39-.059-.579-.277 1.636-1.69 2.886-3.406 2.886"/><path d="m11.655 4.5c0 1.278-1.036 2.315-2.314 2.315-1.278 0-2.314-1.037-2.314-2.315 0-1.278 1.037-2.314 2.314-2.314 1.278 0 2.314 1.036 2.314 2.314"/><circle cx="2.915" cy="10.971" r=".771"/><circle cx="2.915" cy="8.976" r=".771"/><circle cx="2.915" cy="6.98" r=".771"/><circle cx="2.915" cy="4.985" r=".771"/><circle cx="2.915" cy="2.99" r=".771"/><circle cx="2.915" cy=".995" r=".771"/></g></svg>