<svg width="69" height="28" xmlns="http://www.w3.org/2000/svg"><path d="M18.662 21.862c-.444.697-1.3 1.268-2.156 1.268-1.268 0-1.87-1.205-1.87-3.044 0-2.06.666-3.423 3.74-3.423h.286v5.199zm2.44-.476v-7.513c0-3.867-1.552-5.072-4.374-5.072-1.616 0-3.075.666-3.804 1.268l.476 2.188c.824-.73 1.902-1.395 3.17-1.395 1.395 0 2.092.887 2.092 2.98v.95h-.349c-4.47 0-6.213 2.156-6.213 5.58 0 3.138 1.553 4.85 3.836 4.85 1.395 0 2.282-.602 2.98-1.49h.158c.032.412.127.92.222 1.268h2.092a22.987 22.987 0 0 1-.285-3.614zm5.548-8.78c.57-.793 1.459-1.586 2.505-1.586.95 0 1.49.412 1.49 1.617V25h2.504V12.415c0-2.44-1.11-3.614-3.202-3.614-1.49 0-2.694.983-3.138 1.585h-.159V8.991h-2.472V25h2.472V12.605zm13.79 12.616c1.3 0 2.187-.602 2.885-1.49h.158l.19 1.268h1.839V2.334h-2.473v7.07c-.475-.35-1.268-.603-2.029-.603-3.201 0-5.42 2.885-5.42 8.813 0 4.945 1.712 7.608 4.85 7.608zm2.6-3.329c-.413.634-1.079 1.237-2.315 1.237-1.807 0-2.504-2.283-2.504-6.023 0-3.265.95-6.277 2.948-6.277.824 0 1.363.254 1.87.76v10.303zm14.106 2.03l-.57-1.903c-.635.444-1.65 1.078-3.044 1.078-1.965 0-2.98-1.902-2.98-5.516h6.657V16.22c0-5.42-1.743-7.418-4.406-7.418-3.392 0-4.819 3.74-4.819 8.876 0 4.914 2.03 7.545 5.326 7.545 1.585 0 2.821-.507 3.836-1.3zM52.803 10.83c1.426 0 1.87 1.997 1.87 4.723h-4.09c.16-2.853.698-4.723 2.22-4.723zm12.743-1.807l-2.187 5.801-2.06-5.8H58.73l3.011 7.702L58.414 25h2.44l2.41-6.594L65.736 25h2.568l-3.328-8.496 2.98-7.48h-2.41z" fill="#000"/><path fill="#F00" d="M8.025 25v-8.02L13.921-.011h-2.504L6.82 13.556 2.826 2.334H.1l5.42 14.55V25z"/></svg>
