<svg width="94" height="37" xmlns="http://www.w3.org/2000/svg"><path d="M28.5 11.225v8.628h-5v-8.628H20V33h3.5V22.588h5V33H32V11.225h-3.5zM92.766 29.91c-.216 0-1.39.477-3.08.477-3.3 0-4.905-3.17-4.905-8.203 0-4.428 1.35-8.812 3.61-8.812.607 0 1.346.173 2.517 1.258.13.13.218.173.348.173.13 0 .263-.086.39-.303l1.174-1.91a.706.706 0 0 0 .13-.39c0-.174-.174-.305-.435-.436-1.78-.91-2.995-1.084-4.037-1.084-4.08 0-7.247 4.862-7.247 12.457 0 6.554 3.037 10.33 7.38 10.33 1.82 0 3.775-.868 4.556-1.432a.433.433 0 0 0 .173-.477l-.35-1.475c-.045-.13-.088-.174-.218-.174l-.006.001zm-13.12-18.346c.086-.13.043-.305-.13-.34h-2.56c-.74.035-1 .296-1.26.86L71.79 20.2c-.216.478-.434.782-.65.913l-.004-9.888H67.8v21.78h3.336l.003-11.2c.13.09.21.218.3.392l4.95 10.157c.26.52.65.65 1.212.65h2.778c.175 0 .217-.173.13-.304l-6.077-11.63 5.208-9.506h.006zM48.82 30.27c-.65 0-.825-.26-.825-.782V11.225h-9.29v1.9c0 5.253-.303 12.024-3.08 17.146H34.32V37h2.39c.478 0 .65-.35.65-.65v-3.345h9.29L46.655 37h2.514c.26 0 .52-.24.52-.65v-6.08h-.87.001zm-10.46-.007c2.213-3.776 3.08-8.03 3.384-13.24.086-1.127.13-2.3.13-3.163h2.778v16.403H38.36zm13.317-7.205c0 6.554 2.952 10.46 7.292 10.46 2.12 0 3.99-.825 4.94-1.432.173-.086.217-.217.173-.39l-.348-1.476c-.044-.174-.13-.262-.348-.262-.174 0-1.434.478-3.214.478-3.343 0-4.905-2.908-4.905-6.728V22.68s1.693.204 2.69.204h6.34V21.06c0-6.726-2.388-10.33-5.86-10.33-4.677 0-6.76 5.903-6.76 12.328zm6.293-2.904c-.998 0-2.56.173-2.56.173s0-.652.087-1.346c.39-3.69 1.302-5.55 2.82-5.55 1.39 0 2.26 1.91 2.474 5.253.05.694.05 1.475.05 1.475h-2.87v.002l-.001-.007zM10.742 18.16c-2.864 0-5.642-2.083-5.642-7.29 0-5.427 2.605-7.64 5.253-7.64H12.5v14.93h-1.758zM10.576.45c-4.86 0-8.985 3.69-8.985 10.85 0 4.3 2 7.467 5.56 9.03L.51 32.31c-.218.39 0 .694.346.694h3.08c.26 0 .435-.087.52-.305l6.034-11.77h2.01V33H16V.455L10.575.45h.001z" fill="#FFF"/></svg>
