<svg xmlns="http://www.w3.org/2000/svg" viewBox="0 0 16 12" enable-background="new 0 0 16 12"><switch><g><path fill="#e62126" d="m0 0h16v12h-16z"/><g><path fill="#fff" d="m7.856 7.565c-.524.835-1.457 1.389-2.518 1.389-1.638 0-2.966-1.322-2.966-2.953 0-1.632 1.328-2.954 2.966-2.954 1.061 0 1.993.554 2.518 1.389-.413-.427-.992-.693-1.634-.693-1.252 0-2.268 1.01-2.268 2.258 0 1.248 1.016 2.258 2.268 2.258.642.001 1.221-.266 1.634-.693"/><path fill="#fff" d="m7.978 4.966h1.913v1.912h-1.913z" transform="matrix(.70711-.70711.70711.70711-1.57 8.05)"/></g></g></switch></svg>