<svg width="84" height="35" xmlns="http://www.w3.org/2000/svg"><path d="M44.008 28.433h-1.56v-17.16h-9.126v1.677c0 5.226-.195 11.31-1.989 15.483h-1.209v6.357h2.73v-3.861h8.424v3.861h2.73v-6.357zm13.221 1.17l-.702-2.34c-.78.546-2.145 1.326-3.861 1.326-2.418 0-3.666-2.34-3.666-6.786h8.19v-1.677c0-6.669-2.145-9.126-5.421-9.126-4.173 0-5.928 4.602-5.928 10.92 0 6.045 2.496 9.282 6.552 9.282 1.95 0 3.588-.624 4.836-1.599zm-31.863-18.33v8.346h-4.524v-8.346H17.8v19.656h3.042v-8.814h4.524v8.814h3.003V11.273h-3.003zm43.173 19.656h3.315l-5.577-10.413 4.875-9.243h-3.081l-4.719 9.087v-9.087H60.31v19.656h3.042V21.14l5.187 9.789zm10.452.273c1.794 0 3.042-.585 4.095-1.482l-.702-2.262c-.702.624-1.833 1.209-3.315 1.209-2.457 0-3.627-2.808-3.627-7.722 0-4.953 1.56-7.41 3.744-7.41 1.248 0 2.418.663 3.237 1.365l.429-2.886C81.994 11.468 80.98 11 79.225 11c-4.602 0-6.981 3.939-6.981 10.101 0 6.708 2.535 10.101 6.747 10.101zm-39.546-2.769h-5.226c1.638-4.173 1.833-10.218 1.833-14.352v-.351h3.393v14.703zm12.324-14.937c1.755 0 2.301 2.457 2.301 5.811h-5.031c.195-3.51.858-5.811 2.73-5.811z" fill="#000"/><path d="M11.025 20.249v10.686h3.003V3.05H9.543c-4.407 0-8.112 2.925-8.112 8.775 0 4.173 1.638 6.435 4.095 7.683L.3 30.935h3.471l4.758-10.686h2.496zm0-2.496H9.426c-2.613 0-4.758-1.443-4.758-5.928 0-4.641 2.34-6.24 4.758-6.24h1.599v12.168z" fill="#F00"/></svg>
