<svg width="63" height="27" xmlns="http://www.w3.org/2000/svg"><path d="M19.7 9v6h-3.4V9H14v15.002h2.3V17h3.4v7.002H22V9h-2.3zm42.037 12.927c-.145 0-.93.32-2.065.32-2.212 0-3.287-2.124-3.287-5.497 0-2.967.902-5.906 2.415-5.906.407 0 .902.116 1.687.844.087.087.145.116.232.116.082 0 .17-.058.26-.204l.782-1.28a.473.473 0 0 0 .086-.262c0-.116-.116-.204-.29-.29-1.193-.612-2.007-.728-2.706-.728-2.734 0-4.857 3.258-4.857 8.35 0 4.39 2.035 6.923 4.945 6.923 1.22 0 2.53-.582 3.054-.96a.29.29 0 0 0 .115-.32l-.234-.99c-.03-.086-.057-.116-.144-.116zm-8.58-12.693c.06-.09.03-.21-.09-.234h-1.762c-.51.024-.688.204-.867.592l-2.69 5.59a2.55 2.55 0 0 1-.448.628L47.297 9H45v15h2.297l.003-7.712s.15.15.21.27l3.406 6.994c.18.358.45.447.838.447h1.913c.12 0 .15-.12.09-.21l-4.186-8.01 3.59-6.55zM32.884 22.17c-.436 0-.553-.175-.553-.524V9h-6.22v1.68c0 3.52-.202 8.057-2.064 11.49h-.874v4.684h1.6c.32 0 .438-.233.438-.436v-2.416h6.226l.002 2.852h1.685c.174 0 .35-.146.35-.436V22.17h-.583zm-7.01-.004c1.483-2.53 2.064-5.382 2.268-8.874.058-.756.087-2.292.087-2.292h1.86v11.17l-4.22-.004zm8.755-4.83c0 4.393 1.973 7.01 4.882 7.01 1.425 0 2.676-.552 3.316-.96.116-.057.145-.144.116-.26l-.234-.99c-.03-.116-.087-.175-.233-.175-.116 0-.96.32-2.154.32-2.24 0-3.287-1.943-3.287-4.503v-.688s1.133.135 1.803.135H43V16c0-4.51-1.507-6.924-3.833-6.924-3.143 0-4.54 3.956-4.54 8.262zm4.212-1.946c-.67 0-1.716.116-1.716.116s0-.436.06-.902c.26-2.473.87-3.724 1.89-3.724.93 0 1.513 1.28 1.657 3.52.03.465.03.99.03.99h-1.92z"/><path d="M7.367 2.19c-3.26 0-6.022 2.473-6.022 7.273 0 2.88 1.338 5.004 3.724 6.05l-4.45 8.03c-.15.26 0 .465.23.465h2.06c.174 0 .29-.058.35-.204l4.042-7.884h1.39v8.085H11V2.193L7.368 2.19zm.11 11.87c-1.92 0-3.78-1.397-3.78-4.887 0-3.636 1.745-5.12 3.52-5.12H8.7V14.06H7.48z" fill="#F00"/></svg>