<svg xmlns="http://www.w3.org/2000/svg" viewBox="0 0 16 12" enable-background="new 0 0 16 12"><g fill="#003671"><path d="m0 0h16v12h-16z"/></g><path fill="#fff" d="m15.982.01h-1.945l-3.995 2.985v-2.995h-4.083v3.01l-4.01-2.998h-1.929v1.456l3.372 2.536h-3.372v3.996h3.372l-3.372 2.535v1.457h1.929l4.01-2.998v3.01h4.083v-2.995l3.995 2.985h1.945v-1.457l-3.388-2.535h3.388v-3.996h-3.388l3.388-2.536z"/><g fill="#dc2f34"><path d="m15.418 11.99l-5.314-3.992h1.845l4.03 3.04v.952z"/><path d="m.582 11.99l5.314-3.992h-1.845l-4.03 3.04v.952z"/><path d="m5.896 4l-5.339-3.995h-.539v.954l4.052 3.041z"/><path d="m10.1 3.995l5.338-3.995h.54v.954l-4.052 3.041z"/><path d="m15.982 4.958h-6.94v-4.957h-2.125v4.957h-6.899v2.126h6.899v4.916h2.125v-4.916h6.94z"/></g></svg>