<svg width="63" height="27" xmlns="http://www.w3.org/2000/svg"><path d="M60.8 10.565c-.187 0-.282.093-.33.214-.106.26-.81 2.03-1.098 2.77l-.794 2.03-.66-1.64c-.18-.44-1.11-2.78-1.23-3.07-.06-.16-.132-.31-.37-.31H54.49c-.2 0-.314.21-.25.34.066.13 2.982 6.46 2.982 6.46s-3.12 7.09-3.213 7.25c-.09.16.02.39.24.39h1.6c.27 0 .38-.14.46-.36.23-.62.57-1.47 1.06-2.8.32-.88.85-2.42.85-2.42s.58 1.57.79 2.08c.52 1.3 1.19 2.99 1.26 3.17.07.19.173.317.36.317h1.816c.18 0 .262-.196.177-.367-.203-.402-1.93-4.4-3.13-7.03 0 0 3.103-6.543 3.163-6.71.06-.16.05-.33-.21-.33l-1.67.006zM15.038 22.78c-.437-.574-.858-1.447-.86-2.426 0-1.55.815-3.152 2.086-3.153.63 0 1.146.2 1.736.65v4.91c-.36.5-1 .76-1.58.76l-.216.01c-.578 0-.807-.26-1.166-.73zm-1.81-11.704c-.186.08-.303.148-.303.286 0 .083.044.177.09.258l.64 1.293c.065.146.17.18.257.18a.487.487 0 0 0 .256-.095c.922-.56 1.61-.977 2.144-.977.708 0 1.245.52 1.542 1.19.276.63.317 1.52.317 2.52v.3c-.58-.34-1.58-.53-2.09-.53-2.7.01-4.16 2.44-4.16 5.05 0 2.806 1.71 4.86 3.76 4.86 1.14 0 2.18-.632 2.87-1.432l.42.918c.05.1.1.13.24.13h1.31v-8.28c0-1.98-.11-3.492-.66-4.523-.693-1.296-1.926-1.86-3.34-1.86-.91 0-2.322.33-3.27.736zM46.76 15.72c.268-2.433.875-3.664 1.925-3.666.913 0 1.54 1.26 1.69 3.463.03.46.032.974.032.974l-1.778.01c-.69 0-1.95.17-1.95.17s.01-.48.07-.93zm6.127 2.553v-1.2c-.003-4.44-1.632-6.814-4.032-6.812-3.117.01-4.654 3.9-4.65 8.14.002 4.44 2.2 6.92 5.02 6.92 1.24 0 2.476-.46 3.285-.89.124-.06.146-.16.118-.27l-.238-.932c-.03-.116-.09-.17-.24-.17-.066 0-1.09.283-2.084.283-2.31.003-3.37-1.956-3.372-4.56v-.63s1.148.15 1.837.15l4.36-.004zm-14.68 5.234c-2.002 0-2.89-2.265-2.89-5.61-.003-2.94.896-5.85 2.737-5.852.624 0 1.223.196 1.813.643l.007 10.357c-.46.24-1.04.462-1.667.462zM39.86 3.553v7.18c-.72-.263-1.373-.4-1.902-.4-3.04.002-4.996 2.77-4.993 8.105.004 4.57 1.912 6.955 4.56 6.954 1.12 0 2.04-.613 2.715-1.187l.41.645c.068.116.124.155.263.155H42V3.553h-2.14zM25.165 10.57H23v14.435h2.175l-.01-12.217s.718-.537 1.79-.538c1.02 0 1.765.504 1.766 1.497v11.258h2.16l.01-11.87c0-1.757-1.15-2.75-3.13-2.75-1.46.002-2.58 1.042-2.58 1.042v-.856z"/><path d="M11.576 1.494c-.026.128-3.15 9.238-3.377 9.998a253.35 253.35 0 0 0-.81 2.89l-1.1-2.837c-.27-.78-2.81-7.54-2.88-7.808-.04-.15-.12-.334-.39-.333H.98c-.2 0-.315.212-.25.342C.78 3.85 6 16.874 6 16.874l-.002 8.13H8.5v-8.07L14.225 1.61c.06-.16.042-.332-.214-.332l-2.1.002c-.18 0-.3.087-.33.214z" fill="#F00"/></svg>