<svg xmlns="http://www.w3.org/2000/svg" width="22" height="22"><path d="M20.2 4.55l1.8 3.7-2.62 2c.06.62.07 1.26 0 1.9l2.53 2.05-1.9 3.62-3.2-.84c-.42.4-.9.7-1.4 1l-.03 3.23-4.1.8-1.36-2.97c-.3-.04-.6-.1-.9-.17-.26-.06-.5-.15-.76-.24l-2.6 1.97-3.22-2.62 1.52-2.9c-.3-.47-.52-1-.7-1.5l-3.24-.76.05-4.08 3.3-.64c.2-.52.45-1.01.75-1.46l-1.44-2.94 3.29-2.5 2.6 2.1c.53-.16 1.1-.26 1.65-.32l1.44-2.93 4.07.95-.03 3.24c.5.3.9.68 1.32 1.07l3.23-.7zm-8.02 2.5c-2.22-.6-4.5.7-5.1 2.87-.57 2.16.75 4.4 2.97 5 2.22.6 4.5-.7 5.1-2.87.57-2.16-.75-4.4-2.98-5z"/></svg>